<?xml version="1.0" encoding="UTF-8" standalone="no"?>
<!-- Uploaded to: SVG Repo, www.svgrepo.com, Generator: SVG Repo Mixer Tools -->

<svg
   width="848"
   height="848"
   viewBox="0 -2 1089.68 1089.68"
   fill="#000000"
   class="icon"
   version="1.1"
   id="svg4"
   xmlns="http://www.w3.org/2000/svg"
   xmlns:svg="http://www.w3.org/2000/svg">
  <defs
     id="defs4">
    <linearGradient
       id="swatch4">
      <stop
         style="stop-color:#009600;stop-opacity:1;"
         offset="0"
         id="stop4" />
    </linearGradient>
  </defs>
  <path
     d="m 124.06696,926.1094 c -50.086955,0 -91.428569,-40.54658 -91.428569,-91.42857 V 121.53797 c 0,-50.086957 40.546584,-91.428572 91.428569,-91.428572 h 671.00622 c 50.08695,0 91.42857,40.546584 91.42857,91.428572 v 337.09317 l -3.18012,-0.79503 c -13.51553,-3.97516 -26.23603,-5.56522 -40.54659,-5.56522 h -0.79503 l -0.79503,-2.38509 h -2.38509 V 121.53797 c 0,-23.055902 -20.67081,-43.726709 -43.72671,-43.726709 H 124.06696 c -23.0559,0 -43.726706,20.670807 -43.726706,43.726709 v 713.14286 c 0,23.0559 20.670806,43.72671 43.726706,43.72671 h 352.19876 l 0.79504,0.79503 c 8.74534,11.92546 3.97515,20.67081 0.79503,27.03105 -3.18013,5.56522 -4.77019,9.54038 0.79503,15.10559 l 4.77018,4.77019 z"
     fill=""
     id="path1"
     style="fill:#160117;fill-opacity:1" />
  <path
     d="m 175.74399,205.01623 c -8.74535,0 -15.90063,-11.13043 -15.90063,-24.64596 0,-13.51553 7.15528,-24.64596 15.90063,-24.64596 h 270.31055 c 8.74535,0 15.90063,11.13043 15.90063,24.64596 0,13.51553 -7.15528,24.64596 -15.90063,24.64596 z"
     fill=""
     id="path2" />
  <path
     d="M 446.05454,158.1094 H 175.74399 c -7.15528,0 -13.51553,9.54037 -13.51553,22.26087 0,12.7205 6.36025,22.26087 13.51553,22.26087 h 270.31055 c 7.15528,0 13.51553,-9.54037 13.51553,-22.26087 0,-12.7205 -5.56521,-22.26087 -13.51553,-22.26087 z M 172.56386,332.2212 c -7.15528,0 -12.72049,-10.3354 -12.72049,-24.64596 0,-14.31056 5.56521,-24.64596 12.72049,-24.64596 h 193.98758 c 7.15528,0 12.7205,10.3354 12.7205,24.64596 0,14.31056 -5.56522,24.64596 -12.7205,24.64596 z"
     fill=""
     id="path3" />
  <path
     d="M 366.55144,285.31437 H 172.56386 c -5.56521,0 -9.54037,9.54037 -9.54037,22.26087 0,12.7205 3.97515,22.26087 9.54037,22.26087 h 193.98758 c 5.56522,0 9.54037,-9.54037 9.54037,-22.26087 0,-12.7205 -4.77018,-22.26087 -9.54037,-22.26087 z m 400.69565,768.79503 c -27.82609,0 -58.03727,-1.5901 -96.99379,-4.7702 -56.4472,-4.7702 -108.12422,-31.0062 -158.21118,-79.50309 L 286.2533,748.81747 c -52.47205,-50.88198 -54.85714,-117.66459 -7.95031,-168.54658 19.87578,-20.67081 50.88199,-33.3913 84.27329,-33.3913 33.39131,0 63.60249,12.72049 82.68323,34.98136 0.79503,0.79503 2.3851,2.3851 5.56522,3.97516 0.79503,0.79503 2.38509,1.59006 3.18012,2.38509 V 481.68704 429.21499 c 0,-40.54658 0,-81.8882 0.79504,-122.43478 0.79503,-60.42236 47.70186,-106.53416 109.71428,-106.53416 h 0.79503 c 59.62733,0 104.9441,43.7267 108.12423,103.35403 0.79503,13.51553 0.79503,27.82609 0,42.13665 v 18.28571 h 11.92546 c 41.34162,0 73.14286,14.31056 96.19876,44.52174 0.79503,1.59006 5.56522,3.18013 11.92547,3.18013 2.38509,0 4.77018,0 6.36024,-0.79503 7.15528,-0.79504 14.31056,-1.59007 20.67081,-1.59007 31.80124,0 59.62733,12.7205 83.47826,38.95652 3.97516,3.97516 12.7205,7.15528 20.67081,7.15528 h 3.18012 c 5.56522,-0.79503 11.92547,-1.59006 17.49069,-1.59006 59.62735,0 107.32925,42.13665 108.12435,96.99379 2.385,100.96895 3.9751,200.34783 -7.1553,298.93168 -13.5156,119.25466 -77.11812,182.85718 -201.14297,198.75778 -23.0559,3.9751 -49.29192,5.5652 -77.91304,5.5652 z M 358.60113,592.19636 c -16.69565,0 -32.59627,6.36024 -44.52174,17.49068 -14.31056,14.31056 -22.26087,31.00621 -22.26087,49.29192 0,19.08075 8.74534,38.1615 24.64596,54.06212 l 30.21118,30.21118 c 65.98758,65.19254 134.36025,131.97515 202.73292,197.96273 33.39131,31.80124 71.5528,52.47205 113.68944,60.42231 32.59628,6.3603 65.19255,9.5404 96.99379,9.5404 28.62112,0 57.24224,-2.3851 85.06832,-7.9503 100.96895,-18.2857 147.08073,-66.7826 156.62117,-160.59626 8.7453,-89.83851 7.9503,-182.06211 6.3602,-271.10559 v -14.31056 c -0.795,-32.59627 -23.85093,-54.85714 -56.4472,-54.85714 -8.74535,0 -16.69566,1.59006 -25.441,4.77018 v 124.02485 c 0,11.13043 0,32.59627 -22.26087,32.59627 h -0.79503 c -7.15528,0 -12.7205,-1.59006 -15.90062,-5.56522 -6.36025,-6.36024 -7.15528,-18.28571 -7.15528,-27.82608 v -4.77019 c 0,-36.57143 0.79503,-73.93789 0,-111.30435 -0.79503,-32.59627 -23.85093,-55.65217 -55.65217,-55.65217 -7.95031,0 -15.90062,1.59006 -23.0559,3.97515 v 128.79503 c 0,11.13044 -2.3851,19.87578 -7.95031,25.441 -3.97516,3.97515 -9.54038,6.36025 -16.69566,6.36025 h -0.79503 c -21.46584,-0.79503 -21.46584,-23.0559 -21.46583,-31.00621 V 539.72431 472.9417 c 0,-15.10559 -6.36025,-31.00621 -18.28572,-42.93168 -11.13043,-11.13043 -26.23602,-17.49068 -41.34161,-17.49068 -6.36025,0 -13.51553,0.79503 -19.87578,3.18012 v 57.24224 c 0,27.03105 0,55.65217 -1.59006,83.47826 -0.79503,7.15528 -7.15528,12.7205 -13.51553,18.28571 -2.38509,2.3851 -5.56522,4.77019 -7.95031,7.15528 l -2.3851,2.3851 -1.59006,-3.97516 c -1.59006,-2.38509 -3.97515,-4.77019 -6.36024,-6.36025 -4.77019,-5.56521 -10.33541,-11.13043 -13.51553,-17.49068 -2.3851,-4.77019 -1.59006,-10.33541 -1.59006,-15.10559 v -6.36025 -69.1677 c 0,-50.88199 0,-103.35404 -0.79504,-155.03106 0,-38.16149 -24.64596,-63.60248 -60.42236,-64.39751 -38.95652,0 -65.19254,27.82608 -65.19254,68.37267 v 374.45962 l -10.33541,6.36025 -0.79503,-1.59006 c -7.15528,-7.95031 -15.10559,-15.90062 -22.26087,-23.85093 -16.69565,-17.49068 -34.18633,-36.57143 -51.67702,-54.06211 -15.90062,-15.10559 -35.77639,-23.85093 -56.4472,-23.85093 z"
     fill=""
     id="path4"
     style="fill:#4f035c;fill-opacity:1" />
</svg>
